<svg xmlns="http://www.w3.org/2000/svg" viewBox="0 0 64 64" role="img" aria-label="Compress-It">
  <defs>
    <linearGradient id="bg" x1="10" y1="8" x2="54" y2="58" gradientUnits="userSpaceOnUse">
      <stop offset="0" stop-color="#6366f1"/>
      <stop offset="1" stop-color="#10b981"/>
    </linearGradient>
    <linearGradient id="paper" x1="20" y1="13" x2="46" y2="50" gradientUnits="userSpaceOnUse">
      <stop offset="0" stop-color="#ffffff"/>
      <stop offset="1" stop-color="#eef2ff"/>
    </linearGradient>
  </defs>
  <rect width="64" height="64" rx="16" fill="url(#bg)"/>
  <path d="M20 12h19l9 9v31H20z" fill="url(#paper)"/>
  <path d="M39 12v10h9" fill="#c7d2fe"/>
  <rect x="24" y="27" width="16" height="16" rx="3" fill="#111827" opacity=".9"/>
  <rect x="27" y="30" width="4" height="4" rx="1" fill="#34d399"/>
  <rect x="33" y="30" width="4" height="4" rx="1" fill="#818cf8"/>
  <rect x="27" y="36" width="4" height="4" rx="1" fill="#818cf8"/>
  <rect x="33" y="36" width="4" height="4" rx="1" fill="#34d399"/>
  <path d="M15 32h8m-8 0 5-5m-5 5 5 5M49 32h-8m8 0-5-5m5 5-5 5" fill="none" stroke="#fff" stroke-width="4" stroke-linecap="round" stroke-linejoin="round"/>
</svg>
